<svg width="272" height="124" viewBox="0 0 272 124" fill="none" xmlns="http://www.w3.org/2000/svg">
<rect width="272" height="124" rx="11" fill="#F2CECC"/>
<path d="M124.786 87.87H120.421L119.671 90H117.886L121.621 79.56H123.601L127.336 90H125.536L124.786 87.87ZM124.306 86.475L122.611 81.63L120.901 86.475H124.306ZM132.23 85.875L136.04 90H133.73L130.67 86.445V90H128.96V78.9H130.67V85.35L133.67 81.735H136.04L132.23 85.875ZM144.751 81.735V90H143.041V89.025C142.771 89.365 142.416 89.635 141.976 89.835C141.546 90.025 141.086 90.12 140.596 90.12C139.946 90.12 139.361 89.985 138.841 89.715C138.331 89.445 137.926 89.045 137.626 88.515C137.336 87.985 137.191 87.345 137.191 86.595V81.735H138.886V86.34C138.886 87.08 139.071 87.65 139.441 88.05C139.811 88.44 140.316 88.635 140.956 88.635C141.596 88.635 142.101 88.44 142.471 88.05C142.851 87.65 143.041 87.08 143.041 86.34V81.735H144.751ZM151.177 81.6C151.827 81.6 152.407 81.735 152.917 82.005C153.437 82.275 153.842 82.675 154.132 83.205C154.422 83.735 154.567 84.375 154.567 85.125V90H152.872V85.38C152.872 84.64 152.687 84.075 152.317 83.685C151.947 83.285 151.442 83.085 150.802 83.085C150.162 83.085 149.652 83.285 149.272 83.685C148.902 84.075 148.717 84.64 148.717 85.38V90H147.007V81.735H148.717V82.68C148.997 82.34 149.352 82.075 149.782 81.885C150.222 81.695 150.687 81.6 151.177 81.6Z" fill="#757575"/>
<g clip-path="url(#clip0_4_346)">
<path d="M134.5 60.75V73.75H121.5C121.5 70.3022 122.87 66.9956 125.308 64.5576C127.746 62.1196 131.052 60.75 134.5 60.75ZM134.5 59.125C129.113 59.125 124.75 54.7619 124.75 49.375C124.75 43.9881 129.113 39.625 134.5 39.625C139.887 39.625 144.25 43.9881 144.25 49.375C144.25 54.7619 139.887 59.125 134.5 59.125ZM149.125 65.625H150.75V73.75H137.75V65.625H139.375V64C139.375 62.7071 139.889 61.4671 140.803 60.5529C141.717 59.6386 142.957 59.125 144.25 59.125C145.543 59.125 146.783 59.6386 147.697 60.5529C148.611 61.4671 149.125 62.7071 149.125 64V65.625ZM145.875 65.625V64C145.875 63.569 145.704 63.1557 145.399 62.851C145.094 62.5462 144.681 62.375 144.25 62.375C143.819 62.375 143.406 62.5462 143.101 62.851C142.796 63.1557 142.625 63.569 142.625 64V65.625H145.875Z" fill="white"/>
</g>
<defs>
<clipPath id="clip0_4_346">
<rect width="35" height="39" fill="white" transform="translate(119 38)"/>
</clipPath>
</defs>
</svg>
