<svg width="597" height="1024" viewBox="0 0 597 1024" fill="none" xmlns="http://www.w3.org/2000/svg">
<rect width="597" height="1024" fill="#2F3CAF"/>
<path d="M303.234 811.408C310.217 804.425 317.782 801.928 320.692 801.553L328.013 798.737L336.461 802.397V811.408C339.182 816.946 345.077 828.753 346.879 831.682C349.132 835.342 350.539 838.158 348.568 841.819C346.992 844.747 342.092 846.23 339.839 846.605L337.587 847.732V855.616C337.399 857.305 337.418 862.149 338.995 868.005C340.572 873.862 343.969 875.702 345.471 875.89L346.597 884.619L329.139 893.347L311.963 888.842L308.021 876.453C314.328 867.893 315.342 860.872 315.061 858.432L306.332 857.305C294.224 852.237 291.126 846.605 290.282 840.692C289.606 835.962 291.126 829.898 291.971 827.458C292.816 825.018 296.251 818.391 303.234 811.408Z" fill="#FFCDB2"/>
<path d="M171.736 830.837L173.426 849.14L188.631 849.984L202.992 843.508V825.205C207.497 822.671 220.45 810 213.692 805.495C208.285 801.891 197.36 808.686 192.573 812.534C190.602 808.311 188.631 805.776 183 799.863C178.494 795.133 171.361 794.889 168.358 795.358C164.303 791.754 158.972 792.542 156.813 793.387C155.686 791.979 149.773 791.697 148.084 792.261C146.394 792.824 142.171 800.99 149.773 814.505C154.434 822.791 166.762 828.584 171.736 830.837Z" fill="#FFCDB2"/>
<path d="M194.263 846.324C187.73 846.099 176.711 836.093 172.018 831.119L173.426 848.858C181.536 850.21 190.696 847.732 194.263 846.324Z" fill="#E7AE8F"/>
<path d="M173.426 849.984L171.737 830.837C164.697 829.147 153.997 820.7 149.21 813.661C144.424 806.621 143.86 795.076 147.802 792.542C150.956 790.515 154.936 792.261 156.531 793.387C162.163 791.585 167.138 794.138 168.921 795.639C179.058 792.936 188.913 805.776 192.574 812.534C198.487 807.841 211.158 800.032 214.537 806.34C217.916 812.647 208.436 821.357 203.274 824.924V847.45" stroke="#A3A29E" stroke-width="2"/>
<path d="M345.753 875.89C326.605 893.01 312.808 883.586 308.021 876.734C307.74 875.045 242.413 886.59 230.587 886.59C221.126 886.59 215.006 853.739 213.129 837.313C210.098 839.578 206.981 841.448 203.837 842.98C185.72 851.809 166.741 849.405 158.503 846.605C159.911 864.908 168.921 902.921 197.079 918.971C219.605 931.811 248.514 932.205 260.153 930.797C257.675 941.61 249.359 997.25 245.511 1023.72H362.084C359.832 1014.26 366.026 1006.82 369.405 1004.29C402.069 984.917 421.873 1000.91 427.692 1011.33C441.208 1009.36 431.353 988.521 427.692 962.334C424.032 936.147 404.321 909.679 384.611 895.037C368.842 883.323 352.041 877.297 345.753 875.89Z" fill="#FCC552"/>
<path d="M362.084 1023.72C359.832 1014.26 366.026 1006.82 369.405 1004.29C402.069 984.917 421.873 1000.91 427.692 1011.33C441.208 1009.36 431.353 988.521 427.692 962.334C424.032 936.147 404.321 909.679 384.611 895.037C368.842 883.323 352.041 877.297 345.753 875.89C326.605 893.01 312.808 883.586 308.021 876.734C307.74 875.045 242.413 886.59 230.587 886.59C221.126 886.59 215.006 853.739 213.129 837.313C210.098 839.578 206.981 841.448 203.837 842.98C185.72 851.809 166.741 849.405 158.503 846.605C159.911 864.908 168.921 902.921 197.079 918.971C219.605 931.811 248.514 932.205 260.153 930.797C257.675 941.61 249.359 997.25 245.511 1023.72" stroke="#A3A29E" stroke-width="2"/>
<path d="M173.708 848.858L173.145 844.071C160.756 844.972 159.348 846.042 158.785 846.605C162.727 848.295 168.64 848.576 173.708 848.858Z" fill="url(#paint0_linear_1_5)"/>
<path d="M211.158 836.468C209.356 836.018 205.339 837.97 203.556 839.003V842.945C204.213 842.757 206.202 841.987 208.906 840.411C211.609 838.834 212.472 837.689 212.566 837.313C212.848 837.219 212.96 836.919 211.158 836.468Z" fill="url(#paint1_linear_1_5)"/>
<path d="M173.145 844.071C166.387 844.634 154.166 846.042 160.474 847.169C162.632 847.638 168.414 848.689 174.271 849.14C181.592 849.703 191.729 848.295 201.584 844.071C211.439 839.848 215.1 836.75 211.439 836.469C208.511 836.243 204.775 838.064 203.274 839.003" stroke="#A3A29E"/>
<path d="M300.419 818.729C299.518 817.603 298.166 817.884 297.603 818.166C298.504 816.589 301.357 813.379 302.671 811.971C311.457 804.087 316.656 802.116 318.158 802.116L329.984 799.582L335.898 813.942L335.334 825.769C336.367 826.895 337.812 830.161 335.334 834.216C332.237 839.284 317.595 833.371 315.906 830.555C314.216 827.74 312.527 826.332 307.177 825.769C301.827 825.205 301.545 820.137 300.419 818.729Z" fill="#F9C0A2"/>
<path d="M338.713 850.266C338.488 852.293 337.681 852.988 337.306 853.082L337.869 847.45L342.937 845.761V847.45C342.937 848.351 341.811 847.826 341.248 847.45C341.248 848.013 341.135 849.365 340.684 850.266C340.234 851.167 339.183 850.641 338.713 850.266Z" fill="#ABABAB"/>
<path d="M320.974 801.553C316.187 801.741 304.136 806.34 294.224 823.234C281.835 844.353 298.166 862.937 324.635 857.305" stroke="#A3A29E" stroke-width="2"/>
<path d="M315.343 858.432C315.155 861.435 313.372 869.301 307.74 876.734M341.811 833.934C343.782 835.342 346.26 838.834 340.403 841.537" stroke="#A3A29E" stroke-width="2"/>
<path d="M346.598 831.682C349.883 835.624 353.074 844.127 339.558 846.605" stroke="#A3A29E"/>
<path d="M337.869 847.45C336.649 855.71 336.517 873.018 345.753 876.171M313.09 844.071C313.935 845.761 317.257 848.07 323.79 843.79" stroke="#A3A29E" stroke-width="2"/>
<path d="M306.051 815.069C308.303 814.975 312.752 816.082 312.527 821.263" stroke="#A3A29E"/>
<path d="M320.693 826.332C322.664 825.675 327.113 825.431 329.14 829.711" stroke="#A3A29E"/>
<path d="M311.682 811.408H318.159" stroke="#A3A29E"/>
<path d="M319.285 821.826L308.022 832.245" stroke="#A3A29E" stroke-width="2"/>
<path d="M171.595 813.127L156.953 793.135L171.314 814.535C178.072 812.733 183.515 814.535 185.393 815.661C181.563 811.832 174.599 812.376 171.595 813.127Z" fill="#E7AE8F"/>
<path d="M184.408 815.35C181.93 806.34 173.238 798.455 169.202 795.64C169.578 795.915 171.455 797.879 175.96 803.524C180.465 809.169 181.216 812.822 181.029 813.942L184.408 815.35Z" fill="#E7AE8F"/>
<path d="M190.039 823.798C189.946 819.48 185.985 811.633 170.892 814.787L156.531 793.387" stroke="#A3A29E" stroke-width="2"/>
<path d="M168.921 795.64C172.488 799.112 179.79 807.128 180.466 811.408" stroke="#A3A29E" stroke-width="2"/>
<path d="M171.737 830.837C176.149 831.963 187.224 833.596 196.235 831.118" stroke="#A3A29E" stroke-width="2"/>
<path d="M172.863 843.508L173.426 848.858" stroke="#A3A29E"/>
<path d="M357.58 924.039C362.93 927.512 374.531 939.019 378.135 957.266C382.64 980.074 367.998 985.705 366.59 992.745C365.182 999.784 367.998 1003.44 369.687 1004.01" stroke="#A3A29E" stroke-width="2"/>
<path d="M369.969 1003.73C361.183 1009.58 361.24 1019.68 362.366 1024H389.116H410.234H429.382C431.916 1011.33 421.216 1000.91 409.671 996.968C398.126 993.026 380.95 996.405 369.969 1003.73Z" fill="#FFCDB2"/>
<path d="M362.366 1024C361.24 1019.68 361.183 1009.58 369.969 1003.73C380.95 996.405 398.126 993.026 409.671 996.968C421.216 1000.91 431.916 1011.33 429.382 1024M385.737 1009.92C387.145 1010.58 389.792 1014.31 389.116 1024M404.603 1008.79C406.668 1009.83 410.685 1014.31 410.234 1024" stroke="#A3A29E" stroke-width="2"/>
<g style="mix-blend-mode:multiply">
<path d="M391.191 1024C391.642 1016.34 388.57 1011.17 387.069 1009.76C389.997 1013.14 389.88 1020.81 389.692 1024H391.191Z" fill="#E7AE8F" fill-opacity="0.5"/>
</g>
<g style="mix-blend-mode:multiply">
<path d="M412.554 1024C413.962 1014.43 407.779 1009.85 405.808 1009.01C408.469 1011.54 410.68 1016.68 410.68 1024H412.554Z" fill="#E7AE8F" fill-opacity="0.5"/>
</g>
<path fill-rule="evenodd" clip-rule="evenodd" d="M327.168 790.008C324.289 791.193 320.699 795.106 318.217 798.251C316.943 799.866 316.94 802.106 318.102 803.803C326.304 815.77 339.979 834.819 345.155 838.817C344.692 840.163 344.151 842.786 345.471 843.226C347.147 843.785 357.142 838.244 355.094 834.031L377.289 830.555C375.27 830.05 374.269 829.206 373.196 828.302C371.875 827.188 370.444 825.982 366.87 825.205C362.171 824.184 358.043 826.174 356.335 827.603C357.79 820.004 359.55 807.755 359.55 802.679C359.55 796.822 362.178 790.853 363.492 788.6H367.715C367.941 785.672 366.495 782.124 365.744 780.716L349.413 779.871C347.836 780.997 346.128 784.658 345.471 786.347C341.978 786.929 338.261 786.759 335.094 786.615C332.133 786.479 329.655 786.366 328.294 786.91C326.042 787.812 326.605 789.351 327.168 790.008Z" fill="#FCC552"/>
<path d="M343.781 833.934C339.726 822.22 339.839 797.517 340.402 786.629L345.47 786.347C344.907 789.163 343.612 796.146 342.936 801.553C342.091 808.31 342.091 816.476 342.373 822.389C342.598 827.12 343.405 832.057 343.781 833.934Z" fill="#C3932C"/>
<path d="M344.626 837.876L323.226 792.824C324.352 791.247 326.324 790.477 327.168 790.289L344.626 837.876Z" fill="#C4932C"/>
<path d="M328.294 818.166C333.457 824.924 344.063 838.552 345.189 839.003C346.597 839.566 350.258 840.974 353.355 834.779" stroke="#A3A29E"/>
<path d="M328.294 818.166C325.009 813.66 318.214 804.256 317.313 802.679C316.186 800.708 317.313 799.863 317.876 799.018C318.439 798.174 322.944 791.134 327.168 790.008C332.799 805.213 344.175 836.018 344.626 837.595C345.076 839.171 346.878 839.566 347.723 839.566" stroke="#A3A29E"/>
<path d="M327.168 790.008C326.699 789.163 326.38 787.361 328.858 786.91C331.955 786.347 335.897 786.629 337.305 786.629C338.713 786.629 343.781 786.629 345.471 786.347C343.124 795.358 339.727 818.391 344.908 838.439" stroke="#A3A29E"/>
<path d="M367.715 788.6H363.492L364.9 784.939L365.744 780.716C365.744 780.622 365.97 780.885 366.871 782.687C367.772 784.489 367.809 787.38 367.715 788.6Z" fill="url(#paint2_linear_1_5)"/>
<path d="M345.471 786.347C346.128 784.47 347.836 780.547 349.413 779.871L365.744 780.716C366.589 781.748 368.166 784.77 367.715 788.6H363.492" stroke="#A3A29E"/>
<path d="M365.745 780.716C365.745 781.654 365.294 784.545 363.492 788.6C361.239 793.668 360.113 795.921 359.55 801.553C358.987 807.184 358.987 808.029 358.705 812.816C358.423 817.603 355.608 831.4 353.355 834.779" stroke="#A3A29E"/>
<path d="M355.89 828.021C356.453 827.458 358.142 826.162 360.395 825.487C363.211 824.642 367.153 824.923 368.842 825.768C370.532 826.613 375.6 829.992 377.29 830.555L353.637 834.216" stroke="#A3A29E"/>
<path d="M355.045 833.934C355.42 834.31 355.889 835.511 354.763 837.313C353.355 839.566 351.102 840.692 349.413 841.818C347.724 842.945 345.471 844.353 344.908 841.818C344.457 839.791 344.72 839.096 344.908 839.003" stroke="#A3A29E"/>
<g filter="url(#filter0_d_1_5)">
<path d="M173.255 678.535C175.721 658.893 201.881 653.882 211.431 671.222C215.702 678.976 224.481 683.099 233.176 681.433C252.618 677.709 265.468 701.039 251.928 715.481C245.873 721.939 244.665 731.562 248.936 739.317C258.486 756.657 240.268 776.087 222.35 767.672C214.336 763.909 204.811 765.734 198.756 772.192C185.216 786.634 161.106 775.312 163.572 755.67C164.675 746.886 159.996 738.391 151.982 734.627C134.064 726.213 137.382 699.785 156.824 696.06C165.519 694.394 172.153 687.319 173.255 678.535Z" fill="#FDE5B1"/>
<path d="M162.839 693.891C166.615 691.81 169.644 688.579 171.478 684.677L173.288 685.527C174.271 683.434 174.941 681.166 175.24 678.784C175.498 676.724 176.04 674.857 176.802 673.187L174.982 672.357C176.858 668.243 179.966 665.133 183.645 663.152L184.593 664.913C188.019 663.069 191.997 662.307 195.862 662.755L196.092 660.768C200.242 661.249 204.28 662.99 207.543 666.119L206.159 667.563C207.484 668.833 208.678 670.368 209.679 672.187C210.837 674.289 212.298 676.149 213.985 677.731L215.353 676.272C218.498 679.22 222.507 681.103 226.785 681.641L226.536 683.625C228.83 683.913 231.195 683.849 233.552 683.398C235.591 683.007 237.534 682.945 239.358 683.153L239.585 681.166C244.077 681.679 247.996 683.674 251.016 686.561L249.634 688.007C252.447 690.695 254.401 694.243 255.17 698.057L257.13 697.662C257.956 701.757 257.547 706.136 255.58 710.206L253.779 709.336C252.98 710.989 251.889 712.598 250.469 714.113C248.828 715.864 247.51 717.828 246.527 719.921L248.337 720.771C246.505 724.674 245.953 729.068 246.764 733.303L244.8 733.679C245.235 735.95 246.026 738.179 247.184 740.282C248.186 742.1 248.845 743.929 249.21 745.728L251.17 745.33C252.071 749.761 251.384 754.104 249.572 757.868L247.77 757.001C246.083 760.507 243.312 763.462 239.922 765.371L240.904 767.114C237.264 769.164 232.974 770.129 228.494 769.515L228.765 767.534C226.947 767.285 225.079 766.745 223.2 765.862C221.027 764.842 218.752 764.195 216.458 763.908L216.209 765.892C211.931 765.356 207.581 766.189 203.804 768.269L202.839 766.517C200.813 767.632 198.938 769.074 197.297 770.824C195.877 772.339 194.341 773.531 192.743 774.435L193.727 776.176C189.792 778.401 185.449 779.091 181.309 778.53L181.577 776.549C177.721 776.027 174.055 774.305 171.191 771.671L169.837 773.143C166.762 770.315 164.519 766.533 163.718 762.083L165.686 761.729C165.361 759.922 165.298 757.979 165.557 755.919C165.855 753.538 165.767 751.174 165.332 748.903L163.368 749.279C162.556 745.045 160.419 741.165 157.274 738.216L158.642 736.757C156.956 735.175 155.005 733.837 152.833 732.817C150.953 731.935 149.345 730.842 147.992 729.602L146.64 731.076C143.308 728.021 141.31 724.103 140.563 719.993L142.531 719.635C141.836 715.807 142.34 711.788 143.96 708.251L142.142 707.418C143.881 703.62 146.785 700.317 150.77 698.181L151.715 699.943C153.333 699.076 155.161 698.415 157.2 698.024C159.558 697.573 161.778 696.759 163.804 695.643L162.839 693.891Z" stroke="#B5AA4F" stroke-width="4" stroke-dasharray="15 15"/>
</g>
<path d="M148.267 672C142.674 662.387 123.045 643.333 89.2666 644.018" stroke="#B8C856" stroke-width="2"/>
<path d="M155.265 667C155.358 659.795 151.488 643.309 135.267 635" stroke="#B8C856" stroke-width="2"/>
<path d="M259.267 669C266.847 670.879 280.998 679.765 276.955 700.281M347.988 725.925C355.475 736.258 378.535 753.261 410.878 738.607M308.962 730.152C324.871 748.376 369.606 775.58 421.267 738.607" stroke="#B8C856" stroke-width="2"/>
<g filter="url(#filter1_d_1_5)">
<path d="M466.267 699L436.376 734L423.246 723.598L410.117 731.418L409.279 713.918L397.267 703.59L466.267 699Z" fill="#FDE5B1"/>
<path d="M409.279 713.918L397.267 703.59L466.267 699L436.376 734L423.246 723.598M409.279 713.918L446.991 704.738L416.821 718.508L423.246 723.598M409.279 713.918L410.117 731.418L423.246 723.598" stroke="#A3A29E" stroke-width="2"/>
</g>
<path d="M447.267 705L409.267 713.946L410.117 731L423.162 723.172L416.64 718.419L447.267 705Z" fill="#D2C9C9" stroke="#A3A29E" stroke-width="2"/>
<path d="M442.267 1016H476.267" stroke="black" stroke-width="2"/>
<g filter="url(#filter2_d_1_5)">
<path d="M150.947 989.599L163.022 1010L175.098 989.599H204.866C232.668 989.599 226.208 958.714 228.455 940.013C230.702 921.313 229.578 905.445 207.955 909.695C186.331 913.946 149.543 920.746 134.097 924.996C118.737 929.223 125.318 963.154 127.877 976.347L127.919 976.565C129.941 986.992 144.113 989.599 150.947 989.599Z" fill="white"/>
<path d="M150.947 989.599L163.022 1010L175.098 989.599H204.866C232.668 989.599 226.208 958.714 228.455 940.013C230.702 921.313 229.578 905.445 207.955 909.695C186.331 913.946 149.543 920.746 134.097 924.996C118.737 929.223 125.318 963.154 127.877 976.347L127.919 976.565C129.941 986.992 144.113 989.599 150.947 989.599Z" stroke="#A3A29E" stroke-width="2"/>
</g>
<path d="M135.267 944.687L212.267 933M138.92 965L195.124 959.435" stroke="#A9A7A3" stroke-width="2"/>
<path d="M88.2666 905C96.7252 913.634 123.567 931.522 163.267 934" stroke="#B8C856" stroke-width="2"/>
<path d="M103.267 951C108.261 956.001 124.853 965.004 151.267 961.003" stroke="#B8C856" stroke-width="2"/>
<g filter="url(#filter3_d_1_5)">
<path d="M113.4 316.8C116.36 316.8 118.947 317.4 121.16 318.6C123.4 319.773 125.12 321.427 126.32 323.56C127.52 325.693 128.12 328.133 128.12 330.88C128.12 333.6 127.507 336.027 126.28 338.16C125.08 340.293 123.36 341.973 121.12 343.2C118.907 344.4 116.333 345 113.4 345H102.24V316.8H113.4ZM112.8 338.08C115.093 338.08 116.893 337.453 118.2 336.2C119.507 334.947 120.16 333.173 120.16 330.88C120.16 328.56 119.507 326.773 118.2 325.52C116.893 324.24 115.093 323.6 112.8 323.6H110.08V338.08H112.8ZM154.614 322.56V345H146.734V341.8C146.067 342.813 145.147 343.64 143.974 344.28C142.801 344.893 141.454 345.2 139.934 345.2C137.321 345.2 135.254 344.347 133.734 342.64C132.241 340.907 131.494 338.56 131.494 335.6V322.56H139.294V334.6C139.294 335.88 139.627 336.893 140.294 337.64C140.987 338.36 141.894 338.72 143.014 338.72C144.161 338.72 145.067 338.36 145.734 337.64C146.401 336.893 146.734 335.88 146.734 334.6V322.56H154.614ZM188.396 322.36C191.223 322.36 193.436 323.213 195.036 324.92C196.663 326.627 197.476 328.96 197.476 331.92V345H189.636V332.96C189.636 331.76 189.303 330.827 188.636 330.16C187.969 329.493 187.063 329.16 185.916 329.16C184.769 329.16 183.863 329.493 183.196 330.16C182.529 330.827 182.196 331.76 182.196 332.96V345H174.356V332.96C174.356 331.76 174.023 330.827 173.356 330.16C172.716 329.493 171.823 329.16 170.676 329.16C169.503 329.16 168.583 329.493 167.916 330.16C167.249 330.827 166.916 331.76 166.916 332.96V345H159.076V322.56H166.916V325.52C167.609 324.56 168.503 323.8 169.596 323.24C170.716 322.653 171.996 322.36 173.436 322.36C175.089 322.36 176.556 322.72 177.836 323.44C179.143 324.16 180.169 325.173 180.916 326.48C181.716 325.253 182.769 324.267 184.076 323.52C185.383 322.747 186.823 322.36 188.396 322.36ZM200.491 333.76C200.491 331.44 200.905 329.413 201.731 327.68C202.585 325.947 203.731 324.613 205.171 323.68C206.638 322.747 208.265 322.28 210.051 322.28C211.598 322.28 212.931 322.587 214.051 323.2C215.171 323.813 216.038 324.64 216.651 325.68V322.56H224.491V345H216.651V341.88C216.038 342.92 215.158 343.747 214.011 344.36C212.891 344.973 211.571 345.28 210.051 345.28C208.265 345.28 206.638 344.813 205.171 343.88C203.731 342.947 202.585 341.613 201.731 339.88C200.905 338.12 200.491 336.08 200.491 333.76ZM216.651 333.76C216.651 332.32 216.251 331.187 215.451 330.36C214.678 329.533 213.718 329.12 212.571 329.12C211.398 329.12 210.425 329.533 209.651 330.36C208.878 331.16 208.491 332.293 208.491 333.76C208.491 335.2 208.878 336.347 209.651 337.2C210.425 338.027 211.398 338.44 212.571 338.44C213.718 338.44 214.678 338.027 215.451 337.2C216.251 336.373 216.651 335.227 216.651 333.76ZM232.919 320.48C231.532 320.48 230.412 320.107 229.559 319.36C228.732 318.587 228.319 317.627 228.319 316.48C228.319 315.307 228.732 314.333 229.559 313.56C230.412 312.787 231.532 312.4 232.919 312.4C234.279 312.4 235.372 312.787 236.199 313.56C237.052 314.333 237.479 315.307 237.479 316.48C237.479 317.627 237.052 318.587 236.199 319.36C235.372 320.107 234.279 320.48 232.919 320.48ZM236.799 322.56V345H228.959V322.56H236.799ZM266.92 330.52C268.573 330.893 269.88 331.72 270.84 333C271.826 334.253 272.32 335.693 272.32 337.32C272.32 339.72 271.493 341.6 269.84 342.96C268.186 344.32 265.866 345 262.88 345H248.92V316.8H262.44C265.32 316.8 267.573 317.44 269.2 318.72C270.853 320 271.68 321.8 271.68 324.12C271.68 325.773 271.24 327.16 270.36 328.28C269.506 329.373 268.36 330.12 266.92 330.52ZM256.76 328H260.72C262.693 328 263.68 327.187 263.68 325.56C263.68 323.88 262.693 323.04 260.72 323.04H256.76V328ZM261.32 338.68C263.293 338.68 264.28 337.853 264.28 336.2C264.28 335.347 264.013 334.693 263.48 334.24C262.973 333.787 262.24 333.56 261.28 333.56H256.76V338.68H261.32ZM297.196 333.52C297.196 334.133 297.156 334.747 297.076 335.36H282.236C282.316 336.587 282.649 337.507 283.236 338.12C283.849 338.707 284.622 339 285.556 339C286.862 339 287.796 338.413 288.356 337.24H296.716C296.369 338.787 295.689 340.173 294.676 341.4C293.689 342.6 292.436 343.547 290.916 344.24C289.396 344.933 287.716 345.28 285.876 345.28C283.662 345.28 281.689 344.813 279.956 343.88C278.249 342.947 276.902 341.613 275.916 339.88C274.956 338.147 274.476 336.107 274.476 333.76C274.476 331.413 274.956 329.387 275.916 327.68C276.876 325.947 278.209 324.613 279.916 323.68C281.649 322.747 283.636 322.28 285.876 322.28C288.089 322.28 290.049 322.733 291.756 323.64C293.462 324.547 294.796 325.853 295.756 327.56C296.716 329.24 297.196 331.227 297.196 333.52ZM289.196 331.56C289.196 330.6 288.876 329.853 288.236 329.32C287.596 328.76 286.796 328.48 285.836 328.48C284.876 328.48 284.089 328.747 283.476 329.28C282.862 329.787 282.462 330.547 282.276 331.56H289.196ZM308.244 326.52C309.124 325.24 310.191 324.227 311.444 323.48C312.697 322.733 314.044 322.36 315.484 322.36V330.72H313.284C311.577 330.72 310.311 331.053 309.484 331.72C308.657 332.387 308.244 333.547 308.244 335.2V345H300.404V322.56H308.244V326.52ZM332.335 345L326.135 335.8V345H318.295V315.4H326.135V331.36L332.335 322.56H341.735L332.895 333.84L341.895 345H332.335ZM358.953 322.36C361.513 322.36 363.54 323.227 365.033 324.96C366.553 326.667 367.313 328.987 367.313 331.92V345H359.473V332.96C359.473 331.68 359.14 330.68 358.473 329.96C357.806 329.213 356.913 328.84 355.793 328.84C354.62 328.84 353.7 329.213 353.033 329.96C352.366 330.68 352.033 331.68 352.033 332.96V345H344.193V315.4H352.033V325.76C352.726 324.747 353.66 323.933 354.833 323.32C356.033 322.68 357.406 322.36 358.953 322.36ZM375.575 320.48C374.188 320.48 373.068 320.107 372.215 319.36C371.388 318.587 370.975 317.627 370.975 316.48C370.975 315.307 371.388 314.333 372.215 313.56C373.068 312.787 374.188 312.4 375.575 312.4C376.935 312.4 378.028 312.787 378.855 313.56C379.708 314.333 380.135 315.307 380.135 316.48C380.135 317.627 379.708 318.587 378.855 319.36C378.028 320.107 376.935 320.48 375.575 320.48ZM379.455 322.56V345H371.615V322.56H379.455ZM382.64 333.76C382.64 331.44 383.053 329.413 383.88 327.68C384.733 325.947 385.893 324.613 387.36 323.68C388.826 322.747 390.453 322.28 392.24 322.28C393.68 322.28 394.96 322.587 396.08 323.2C397.226 323.787 398.12 324.6 398.76 325.64V315.4H406.64V345H398.76V341.88C398.146 342.92 397.28 343.747 396.16 344.36C395.04 344.973 393.72 345.28 392.2 345.28C390.413 345.28 388.786 344.813 387.32 343.88C385.88 342.947 384.733 341.613 383.88 339.88C383.053 338.12 382.64 336.08 382.64 333.76ZM398.8 333.76C398.8 332.32 398.4 331.187 397.6 330.36C396.826 329.533 395.866 329.12 394.72 329.12C393.546 329.12 392.573 329.533 391.8 330.36C391.026 331.16 390.64 332.293 390.64 333.76C390.64 335.2 391.026 336.347 391.8 337.2C392.573 338.027 393.546 338.44 394.72 338.44C395.866 338.44 396.826 338.027 397.6 337.2C398.4 336.373 398.8 335.227 398.8 333.76ZM440.427 322.36C443.254 322.36 445.467 323.213 447.067 324.92C448.694 326.627 449.507 328.96 449.507 331.92V345H441.667V332.96C441.667 331.76 441.334 330.827 440.667 330.16C440.001 329.493 439.094 329.16 437.947 329.16C436.801 329.16 435.894 329.493 435.227 330.16C434.561 330.827 434.227 331.76 434.227 332.96V345H426.387V332.96C426.387 331.76 426.054 330.827 425.387 330.16C424.747 329.493 423.854 329.16 422.707 329.16C421.534 329.16 420.614 329.493 419.947 330.16C419.281 330.827 418.947 331.76 418.947 332.96V345H411.107V322.56H418.947V325.52C419.641 324.56 420.534 323.8 421.627 323.24C422.747 322.653 424.027 322.36 425.467 322.36C427.121 322.36 428.587 322.72 429.867 323.44C431.174 324.16 432.201 325.173 432.947 326.48C433.747 325.253 434.801 324.267 436.107 323.52C437.414 322.747 438.854 322.36 440.427 322.36ZM452.523 333.76C452.523 331.44 452.936 329.413 453.763 327.68C454.616 325.947 455.763 324.613 457.203 323.68C458.669 322.747 460.296 322.28 462.083 322.28C463.629 322.28 464.963 322.587 466.083 323.2C467.203 323.813 468.069 324.64 468.683 325.68V322.56H476.523V345H468.683V341.88C468.069 342.92 467.189 343.747 466.043 344.36C464.923 344.973 463.603 345.28 462.083 345.28C460.296 345.28 458.669 344.813 457.203 343.88C455.763 342.947 454.616 341.613 453.763 339.88C452.936 338.12 452.523 336.08 452.523 333.76ZM468.683 333.76C468.683 332.32 468.283 331.187 467.483 330.36C466.709 329.533 465.749 329.12 464.603 329.12C463.429 329.12 462.456 329.533 461.683 330.36C460.909 331.16 460.523 332.293 460.523 333.76C460.523 335.2 460.909 336.347 461.683 337.2C462.456 338.027 463.429 338.44 464.603 338.44C465.749 338.44 466.709 338.027 467.483 337.2C468.283 336.373 468.683 335.227 468.683 333.76ZM494.23 338.32V345H490.83C485.097 345 482.23 342.16 482.23 336.48V329.08H479.47V322.56H482.23V317.12H490.11V322.56H494.19V329.08H490.11V336.6C490.11 337.213 490.243 337.653 490.51 337.92C490.803 338.187 491.283 338.32 491.95 338.32H494.23Z" fill="#FDE5B1"/>
</g>
<path d="M162.144 373.44V396H155.872V383.552L151.616 396H146.368L142.08 383.456V396H135.808V373.44H143.392L149.056 388.096L154.592 373.44H162.144ZM182.866 386.816C182.866 387.307 182.834 387.797 182.77 388.288H170.898C170.962 389.269 171.229 390.005 171.698 390.496C172.189 390.965 172.807 391.2 173.554 391.2C174.599 391.2 175.346 390.731 175.794 389.792H182.482C182.205 391.029 181.661 392.139 180.85 393.12C180.061 394.08 179.058 394.837 177.842 395.392C176.626 395.947 175.282 396.224 173.81 396.224C172.039 396.224 170.461 395.851 169.074 395.104C167.709 394.357 166.631 393.291 165.842 391.904C165.074 390.517 164.69 388.885 164.69 387.008C164.69 385.131 165.074 383.509 165.842 382.144C166.61 380.757 167.677 379.691 169.042 378.944C170.429 378.197 172.018 377.824 173.81 377.824C175.581 377.824 177.149 378.187 178.514 378.912C179.879 379.637 180.946 380.683 181.714 382.048C182.482 383.392 182.866 384.981 182.866 386.816ZM176.466 385.248C176.466 384.48 176.21 383.883 175.698 383.456C175.186 383.008 174.546 382.784 173.778 382.784C173.01 382.784 172.381 382.997 171.89 383.424C171.399 383.829 171.079 384.437 170.93 385.248H176.466ZM197.177 377.888C199.246 377.888 200.889 378.581 202.105 379.968C203.321 381.333 203.929 383.189 203.929 385.536V396H197.657V386.368C197.657 385.344 197.39 384.544 196.857 383.968C196.323 383.371 195.609 383.072 194.713 383.072C193.774 383.072 193.038 383.371 192.505 383.968C191.971 384.544 191.705 385.344 191.705 386.368V396H185.433V378.048H191.705V380.608C192.259 379.797 193.006 379.147 193.945 378.656C194.883 378.144 195.961 377.888 197.177 377.888ZM225.738 378.048V396H219.434V393.44C218.901 394.251 218.165 394.912 217.226 395.424C216.287 395.915 215.21 396.16 213.994 396.16C211.903 396.16 210.25 395.477 209.034 394.112C207.839 392.725 207.242 390.848 207.242 388.48V378.048H213.482V387.68C213.482 388.704 213.749 389.515 214.282 390.112C214.837 390.688 215.562 390.976 216.458 390.976C217.375 390.976 218.101 390.688 218.634 390.112C219.167 389.515 219.434 388.704 219.434 387.68V378.048H225.738ZM232.444 376.384C231.334 376.384 230.438 376.085 229.756 375.488C229.094 374.869 228.764 374.101 228.764 373.184C228.764 372.245 229.094 371.467 229.756 370.848C230.438 370.229 231.334 369.92 232.444 369.92C233.532 369.92 234.406 370.229 235.068 370.848C235.75 371.467 236.092 372.245 236.092 373.184C236.092 374.101 235.75 374.869 235.068 375.488C234.406 376.085 233.532 376.384 232.444 376.384ZM235.58 397.76C235.58 402.304 233.297 404.576 228.732 404.576H226.46V399.232H227.804C228.337 399.232 228.721 399.125 228.956 398.912C229.19 398.699 229.308 398.347 229.308 397.856V378.048H235.58V397.76ZM257.488 378.048V396H251.184V393.44C250.651 394.251 249.915 394.912 248.976 395.424C248.037 395.915 246.96 396.16 245.744 396.16C243.653 396.16 242 395.477 240.784 394.112C239.589 392.725 238.992 390.848 238.992 388.48V378.048H245.232V387.68C245.232 388.704 245.499 389.515 246.032 390.112C246.587 390.688 247.312 390.976 248.208 390.976C249.125 390.976 249.851 390.688 250.384 390.112C250.917 389.515 251.184 388.704 251.184 387.68V378.048H257.488ZM278.415 396L273.455 388.64V396H267.183V372.32H273.455V385.088L278.415 378.048H285.935L278.863 387.072L286.063 396H278.415ZM296.253 396.224C294.461 396.224 292.851 395.851 291.421 395.104C290.013 394.357 288.904 393.291 288.093 391.904C287.283 390.517 286.877 388.885 286.877 387.008C286.877 385.152 287.283 383.531 288.093 382.144C288.925 380.757 290.045 379.691 291.453 378.944C292.883 378.197 294.493 377.824 296.285 377.824C298.077 377.824 299.677 378.197 301.085 378.944C302.515 379.691 303.635 380.757 304.445 382.144C305.277 383.531 305.693 385.152 305.693 387.008C305.693 388.864 305.277 390.496 304.445 391.904C303.635 393.291 302.515 394.357 301.085 395.104C299.656 395.851 298.045 396.224 296.253 396.224ZM296.253 390.784C297.128 390.784 297.853 390.464 298.429 389.824C299.027 389.163 299.325 388.224 299.325 387.008C299.325 385.792 299.027 384.864 298.429 384.224C297.853 383.584 297.139 383.264 296.285 383.264C295.432 383.264 294.717 383.584 294.141 384.224C293.565 384.864 293.277 385.792 293.277 387.008C293.277 388.245 293.555 389.184 294.109 389.824C294.664 390.464 295.379 390.784 296.253 390.784ZM318.837 390.656V396H316.117C311.53 396 309.237 393.728 309.237 389.184V383.264H307.029V378.048H309.237V373.696H315.541V378.048H318.805V383.264H315.541V389.28C315.541 389.771 315.648 390.123 315.861 390.336C316.096 390.549 316.48 390.656 317.013 390.656H318.837ZM320.69 387.008C320.69 385.152 321.021 383.531 321.682 382.144C322.365 380.757 323.282 379.691 324.434 378.944C325.607 378.197 326.909 377.824 328.338 377.824C329.575 377.824 330.642 378.069 331.538 378.56C332.434 379.051 333.127 379.712 333.618 380.544V378.048H339.89V396H333.618V393.504C333.127 394.336 332.423 394.997 331.506 395.488C330.61 395.979 329.554 396.224 328.338 396.224C326.909 396.224 325.607 395.851 324.434 395.104C323.282 394.357 322.365 393.291 321.682 391.904C321.021 390.496 320.69 388.864 320.69 387.008ZM333.618 387.008C333.618 385.856 333.298 384.949 332.658 384.288C332.039 383.627 331.271 383.296 330.354 383.296C329.415 383.296 328.637 383.627 328.018 384.288C327.399 384.928 327.09 385.835 327.09 387.008C327.09 388.16 327.399 389.077 328.018 389.76C328.637 390.421 329.415 390.752 330.354 390.752C331.271 390.752 332.039 390.421 332.658 389.76C333.298 389.099 333.618 388.181 333.618 387.008ZM352.757 376.384C351.648 376.384 350.752 376.085 350.069 375.488C349.408 374.869 349.077 374.101 349.077 373.184C349.077 372.245 349.408 371.467 350.069 370.848C350.752 370.229 351.648 369.92 352.757 369.92C353.845 369.92 354.72 370.229 355.381 370.848C356.064 371.467 356.405 372.245 356.405 373.184C356.405 374.101 356.064 374.869 355.381 375.488C354.72 376.085 353.845 376.384 352.757 376.384ZM355.861 378.048V396H349.589V378.048H355.861ZM358.409 387.008C358.409 385.152 358.739 383.531 359.401 382.144C360.083 380.757 361.011 379.691 362.185 378.944C363.358 378.197 364.659 377.824 366.089 377.824C367.241 377.824 368.265 378.069 369.161 378.56C370.078 379.029 370.793 379.68 371.305 380.512V372.32H377.609V396H371.305V393.504C370.814 394.336 370.121 394.997 369.225 395.488C368.329 395.979 367.273 396.224 366.057 396.224C364.627 396.224 363.326 395.851 362.153 395.104C361.001 394.357 360.083 393.291 359.401 391.904C358.739 390.496 358.409 388.864 358.409 387.008ZM371.337 387.008C371.337 385.856 371.017 384.949 370.377 384.288C369.758 383.627 368.99 383.296 368.073 383.296C367.134 383.296 366.355 383.627 365.737 384.288C365.118 384.928 364.809 385.835 364.809 387.008C364.809 388.16 365.118 389.077 365.737 389.76C366.355 390.421 367.134 390.752 368.073 390.752C368.99 390.752 369.758 390.421 370.377 389.76C371.017 389.099 371.337 388.181 371.337 387.008ZM380.159 387.008C380.159 385.152 380.489 383.531 381.151 382.144C381.833 380.757 382.751 379.691 383.903 378.944C385.076 378.197 386.377 377.824 387.807 377.824C389.044 377.824 390.111 378.069 391.007 378.56C391.903 379.051 392.596 379.712 393.087 380.544V378.048H399.359V396H393.087V393.504C392.596 394.336 391.892 394.997 390.975 395.488C390.079 395.979 389.023 396.224 387.807 396.224C386.377 396.224 385.076 395.851 383.903 395.104C382.751 394.357 381.833 393.291 381.151 391.904C380.489 390.496 380.159 388.864 380.159 387.008ZM393.087 387.008C393.087 385.856 392.767 384.949 392.127 384.288C391.508 383.627 390.74 383.296 389.823 383.296C388.884 383.296 388.105 383.627 387.487 384.288C386.868 384.928 386.559 385.835 386.559 387.008C386.559 388.16 386.868 389.077 387.487 389.76C388.105 390.421 388.884 390.752 389.823 390.752C390.74 390.752 391.508 390.421 392.127 389.76C392.767 389.099 393.087 388.181 393.087 387.008ZM426.389 377.888C428.65 377.888 430.421 378.571 431.701 379.936C433.002 381.301 433.653 383.168 433.653 385.536V396H427.381V386.368C427.381 385.408 427.114 384.661 426.581 384.128C426.047 383.595 425.322 383.328 424.405 383.328C423.487 383.328 422.762 383.595 422.229 384.128C421.695 384.661 421.429 385.408 421.429 386.368V396H415.157V386.368C415.157 385.408 414.89 384.661 414.357 384.128C413.845 383.595 413.13 383.328 412.213 383.328C411.274 383.328 410.538 383.595 410.005 384.128C409.471 384.661 409.205 385.408 409.205 386.368V396H402.933V378.048H409.205V380.416C409.759 379.648 410.474 379.04 411.349 378.592C412.245 378.123 413.269 377.888 414.421 377.888C415.743 377.888 416.917 378.176 417.941 378.752C418.986 379.328 419.807 380.139 420.405 381.184C421.045 380.203 421.887 379.413 422.933 378.816C423.978 378.197 425.13 377.888 426.389 377.888ZM436.065 387.008C436.065 385.152 436.396 383.531 437.057 382.144C437.74 380.757 438.657 379.691 439.809 378.944C440.982 378.197 442.284 377.824 443.713 377.824C444.95 377.824 446.017 378.069 446.913 378.56C447.809 379.051 448.502 379.712 448.993 380.544V378.048H455.265V396H448.993V393.504C448.502 394.336 447.798 394.997 446.881 395.488C445.985 395.979 444.929 396.224 443.713 396.224C442.284 396.224 440.982 395.851 439.809 395.104C438.657 394.357 437.74 393.291 437.057 391.904C436.396 390.496 436.065 388.864 436.065 387.008ZM448.993 387.008C448.993 385.856 448.673 384.949 448.033 384.288C447.414 383.627 446.646 383.296 445.729 383.296C444.79 383.296 444.012 383.627 443.393 384.288C442.774 384.928 442.465 385.835 442.465 387.008C442.465 388.16 442.774 389.077 443.393 389.76C444.012 390.421 444.79 390.752 445.729 390.752C446.646 390.752 447.414 390.421 448.033 389.76C448.673 389.099 448.993 388.181 448.993 387.008ZM470.583 377.888C472.652 377.888 474.295 378.581 475.511 379.968C476.727 381.333 477.335 383.189 477.335 385.536V396H471.063V386.368C471.063 385.344 470.796 384.544 470.263 383.968C469.73 383.371 469.015 383.072 468.119 383.072C467.18 383.072 466.444 383.371 465.911 383.968C465.378 384.544 465.111 385.344 465.111 386.368V396H458.839V378.048H465.111V380.608C465.666 379.797 466.412 379.147 467.351 378.656C468.29 378.144 469.367 377.888 470.583 377.888Z" fill="white"/>
<defs>
<filter id="filter0_d_1_5" x="136.227" y="660.63" width="125.306" height="126.086" filterUnits="userSpaceOnUse" color-interpolation-filters="sRGB">
<feFlood flood-opacity="0" result="BackgroundImageFix"/>
<feColorMatrix in="SourceAlpha" type="matrix" values="0 0 0 0 0 0 0 0 0 0 0 0 0 0 0 0 0 0 127 0" result="hardAlpha"/>
<feOffset dy="4"/>
<feGaussianBlur stdDeviation="2"/>
<feComposite in2="hardAlpha" operator="out"/>
<feColorMatrix type="matrix" values="0 0 0 0 0 0 0 0 0 0 0 0 0 0 0 0 0 0 0.25 0"/>
<feBlend mode="normal" in2="BackgroundImageFix" result="effect1_dropShadow_1_5"/>
<feBlend mode="normal" in="SourceGraphic" in2="effect1_dropShadow_1_5" result="shape"/>
</filter>
<filter id="filter1_d_1_5" x="390.761" y="697.845" width="81.8074" height="45.5377" filterUnits="userSpaceOnUse" color-interpolation-filters="sRGB">
<feFlood flood-opacity="0" result="BackgroundImageFix"/>
<feColorMatrix in="SourceAlpha" type="matrix" values="0 0 0 0 0 0 0 0 0 0 0 0 0 0 0 0 0 0 127 0" result="hardAlpha"/>
<feOffset dy="4"/>
<feGaussianBlur stdDeviation="2"/>
<feComposite in2="hardAlpha" operator="out"/>
<feColorMatrix type="matrix" values="0 0 0 0 0 0 0 0 0 0 0 0 0 0 0 0 0 0 0.25 0"/>
<feBlend mode="normal" in2="BackgroundImageFix" result="effect1_dropShadow_1_5"/>
<feBlend mode="normal" in="SourceGraphic" in2="effect1_dropShadow_1_5" result="shape"/>
</filter>
<filter id="filter2_d_1_5" x="119.267" y="908" width="115" height="111.963" filterUnits="userSpaceOnUse" color-interpolation-filters="sRGB">
<feFlood flood-opacity="0" result="BackgroundImageFix"/>
<feColorMatrix in="SourceAlpha" type="matrix" values="0 0 0 0 0 0 0 0 0 0 0 0 0 0 0 0 0 0 127 0" result="hardAlpha"/>
<feOffset dy="4"/>
<feGaussianBlur stdDeviation="2"/>
<feComposite in2="hardAlpha" operator="out"/>
<feColorMatrix type="matrix" values="0 0 0 0 0 0 0 0 0 0 0 0 0 0 0 0 0 0 0.25 0"/>
<feBlend mode="normal" in2="BackgroundImageFix" result="effect1_dropShadow_1_5"/>
<feBlend mode="normal" in="SourceGraphic" in2="effect1_dropShadow_1_5" result="shape"/>
</filter>
<filter id="filter3_d_1_5" x="98.24" y="312.4" width="399.99" height="40.88" filterUnits="userSpaceOnUse" color-interpolation-filters="sRGB">
<feFlood flood-opacity="0" result="BackgroundImageFix"/>
<feColorMatrix in="SourceAlpha" type="matrix" values="0 0 0 0 0 0 0 0 0 0 0 0 0 0 0 0 0 0 127 0" result="hardAlpha"/>
<feOffset dy="4"/>
<feGaussianBlur stdDeviation="2"/>
<feComposite in2="hardAlpha" operator="out"/>
<feColorMatrix type="matrix" values="0 0 0 0 0 0 0 0 0 0 0 0 0 0 0 0 0 0 0.25 0"/>
<feBlend mode="normal" in2="BackgroundImageFix" result="effect1_dropShadow_1_5"/>
<feBlend mode="normal" in="SourceGraphic" in2="effect1_dropShadow_1_5" result="shape"/>
</filter>
<linearGradient id="paint0_linear_1_5" x1="165.824" y1="844.634" x2="167.232" y2="849.14" gradientUnits="userSpaceOnUse">
<stop offset="0.141437" stop-color="#AE7806"/>
<stop offset="1" stop-color="#F0AA15"/>
</linearGradient>
<linearGradient id="paint1_linear_1_5" x1="208.141" y1="836.402" x2="204.4" y2="846.605" gradientUnits="userSpaceOnUse">
<stop offset="0.223853" stop-color="#AE7806"/>
<stop offset="1" stop-color="#F0AA15"/>
</linearGradient>
<linearGradient id="paint2_linear_1_5" x1="362.084" y1="787.474" x2="369.686" y2="786.066" gradientUnits="userSpaceOnUse">
<stop offset="0.442708" stop-color="#C3932C"/>
<stop offset="0.817708" stop-color="white" stop-opacity="0"/>
</linearGradient>
</defs>
</svg>
