<svg width="272" height="124" viewBox="0 0 272 124" fill="none" xmlns="http://www.w3.org/2000/svg">
<rect width="272" height="124" rx="11" fill="#DBD7CF"/>
<g clip-path="url(#clip0_8_15)">
<path d="M123.375 75.625C122.988 75.625 122.617 75.4714 122.344 75.1979C122.07 74.9244 121.917 74.5534 121.917 74.1667V50.8333C121.917 50.4466 122.07 50.0756 122.344 49.8021C122.617 49.5286 122.988 49.375 123.375 49.375H134.187L137.104 52.2917H148.167C148.553 52.2917 148.924 52.4453 149.198 52.7188C149.471 52.9923 149.625 53.3632 149.625 53.75V58.125H124.833V72.7025L127.75 61.0417H151.812L148.444 74.521C148.365 74.8364 148.183 75.1163 147.926 75.3163C147.67 75.5164 147.354 75.625 147.029 75.625H123.375V75.625Z" fill="white"/>
</g>
<path d="M64.9183 95L60.8833 90.335V95H59.1733V84.575H60.8833V89.33L64.9333 84.575H67.0783L62.5483 89.795L67.1533 95H64.9183ZM68.0955 90.83C68.0955 90 68.2655 89.265 68.6055 88.625C68.9555 87.985 69.4255 87.49 70.0155 87.14C70.6155 86.78 71.2755 86.6 71.9955 86.6C72.6455 86.6 73.2105 86.73 73.6905 86.99C74.1805 87.24 74.5705 87.555 74.8605 87.935V86.735H76.5855V95H74.8605V93.77C74.5705 94.16 74.1755 94.485 73.6755 94.745C73.1755 95.005 72.6055 95.135 71.9655 95.135C71.2555 95.135 70.6055 94.955 70.0155 94.595C69.4255 94.225 68.9555 93.715 68.6055 93.065C68.2655 92.405 68.0955 91.66 68.0955 90.83ZM74.8605 90.86C74.8605 90.29 74.7405 89.795 74.5005 89.375C74.2705 88.955 73.9655 88.635 73.5855 88.415C73.2055 88.195 72.7955 88.085 72.3555 88.085C71.9155 88.085 71.5055 88.195 71.1255 88.415C70.7455 88.625 70.4355 88.94 70.1955 89.36C69.9655 89.77 69.8505 90.26 69.8505 90.83C69.8505 91.4 69.9655 91.9 70.1955 92.33C70.4355 92.76 70.7455 93.09 71.1255 93.32C71.5155 93.54 71.9255 93.65 72.3555 93.65C72.7955 93.65 73.2055 93.54 73.5855 93.32C73.9655 93.1 74.2705 92.78 74.5005 92.36C74.7405 91.93 74.8605 91.43 74.8605 90.86ZM80.8265 88.13V92.705C80.8265 93.015 80.8965 93.24 81.0365 93.38C81.1865 93.51 81.4365 93.575 81.7865 93.575H82.8365V95H81.4865C80.7165 95 80.1265 94.82 79.7165 94.46C79.3065 94.1 79.1015 93.515 79.1015 92.705V88.13H78.1265V86.735H79.1015V84.68H80.8265V86.735H82.8365V88.13H80.8265ZM91.9876 90.665C91.9876 90.975 91.9676 91.255 91.9276 91.505H85.6126C85.6626 92.165 85.9076 92.695 86.3476 93.095C86.7876 93.495 87.3276 93.695 87.9676 93.695C88.8876 93.695 89.5376 93.31 89.9176 92.54H91.7626C91.5126 93.3 91.0576 93.925 90.3976 94.415C89.7476 94.895 88.9376 95.135 87.9676 95.135C87.1776 95.135 86.4676 94.96 85.8376 94.61C85.2176 94.25 84.7276 93.75 84.3676 93.11C84.0176 92.46 83.8426 91.71 83.8426 90.86C83.8426 90.01 84.0126 89.265 84.3526 88.625C84.7026 87.975 85.1876 87.475 85.8076 87.125C86.4376 86.775 87.1576 86.6 87.9676 86.6C88.7476 86.6 89.4426 86.77 90.0526 87.11C90.6626 87.45 91.1376 87.93 91.4776 88.55C91.8176 89.16 91.9876 89.865 91.9876 90.665ZM90.2026 90.125C90.1926 89.495 89.9676 88.99 89.5276 88.61C89.0876 88.23 88.5426 88.04 87.8926 88.04C87.3026 88.04 86.7976 88.23 86.3776 88.61C85.9576 88.98 85.7076 89.485 85.6276 90.125H90.2026ZM97.0004 86.6C97.6404 86.6 98.2054 86.73 98.6954 86.99C99.1954 87.24 99.5854 87.555 99.8654 87.935V86.735H101.59V95.135C101.59 95.895 101.43 96.57 101.11 97.16C100.79 97.76 100.325 98.23 99.7154 98.57C99.1154 98.91 98.3954 99.08 97.5554 99.08C96.4354 99.08 95.5054 98.815 94.7654 98.285C94.0254 97.765 93.6054 97.055 93.5054 96.155H95.2004C95.3304 96.585 95.6054 96.93 96.0254 97.19C96.4554 97.46 96.9654 97.595 97.5554 97.595C98.2454 97.595 98.8004 97.385 99.2204 96.965C99.6504 96.545 99.8654 95.935 99.8654 95.135V93.755C99.5754 94.145 99.1804 94.475 98.6804 94.745C98.1904 95.005 97.6304 95.135 97.0004 95.135C96.2804 95.135 95.6204 94.955 95.0204 94.595C94.4304 94.225 93.9604 93.715 93.6104 93.065C93.2704 92.405 93.1004 91.66 93.1004 90.83C93.1004 90 93.2704 89.265 93.6104 88.625C93.9604 87.985 94.4304 87.49 95.0204 87.14C95.6204 86.78 96.2804 86.6 97.0004 86.6ZM99.8654 90.86C99.8654 90.29 99.7454 89.795 99.5054 89.375C99.2754 88.955 98.9704 88.635 98.5904 88.415C98.2104 88.195 97.8004 88.085 97.3604 88.085C96.9204 88.085 96.5104 88.195 96.1304 88.415C95.7504 88.625 95.4404 88.94 95.2004 89.36C94.9704 89.77 94.8554 90.26 94.8554 90.83C94.8554 91.4 94.9704 91.9 95.2004 92.33C95.4404 92.76 95.7504 93.09 96.1304 93.32C96.5204 93.54 96.9304 93.65 97.3604 93.65C97.8004 93.65 98.2104 93.54 98.5904 93.32C98.9704 93.1 99.2754 92.78 99.5054 92.36C99.7454 91.93 99.8654 91.43 99.8654 90.86ZM107.421 95.135C106.641 95.135 105.936 94.96 105.306 94.61C104.676 94.25 104.181 93.75 103.821 93.11C103.461 92.46 103.281 91.71 103.281 90.86C103.281 90.02 103.466 89.275 103.836 88.625C104.206 87.975 104.711 87.475 105.351 87.125C105.991 86.775 106.706 86.6 107.496 86.6C108.286 86.6 109.001 86.775 109.641 87.125C110.281 87.475 110.786 87.975 111.156 88.625C111.526 89.275 111.711 90.02 111.711 90.86C111.711 91.7 111.521 92.445 111.141 93.095C110.761 93.745 110.241 94.25 109.581 94.61C108.931 94.96 108.211 95.135 107.421 95.135ZM107.421 93.65C107.861 93.65 108.271 93.545 108.651 93.335C109.041 93.125 109.356 92.81 109.596 92.39C109.836 91.97 109.956 91.46 109.956 90.86C109.956 90.26 109.841 89.755 109.611 89.345C109.381 88.925 109.076 88.61 108.696 88.4C108.316 88.19 107.906 88.085 107.466 88.085C107.026 88.085 106.616 88.19 106.236 88.4C105.866 88.61 105.571 88.925 105.351 89.345C105.131 89.755 105.021 90.26 105.021 90.86C105.021 91.75 105.246 92.44 105.696 92.93C106.156 93.41 106.731 93.65 107.421 93.65ZM115.112 87.935C115.362 87.515 115.692 87.19 116.102 86.96C116.522 86.72 117.017 86.6 117.587 86.6V88.37H117.152C116.482 88.37 115.972 88.54 115.622 88.88C115.282 89.22 115.112 89.81 115.112 90.65V95H113.402V86.735H115.112V87.935ZM120.029 85.64C119.719 85.64 119.459 85.535 119.249 85.325C119.039 85.115 118.934 84.855 118.934 84.545C118.934 84.235 119.039 83.975 119.249 83.765C119.459 83.555 119.719 83.45 120.029 83.45C120.329 83.45 120.584 83.555 120.794 83.765C121.004 83.975 121.109 84.235 121.109 84.545C121.109 84.855 121.004 85.115 120.794 85.325C120.584 85.535 120.329 85.64 120.029 85.64ZM120.869 86.735V95H119.159V86.735H120.869ZM134.3 87.68C134.3 88.21 134.175 88.71 133.925 89.18C133.675 89.65 133.275 90.035 132.725 90.335C132.175 90.625 131.47 90.77 130.61 90.77H128.72V95H127.01V84.575H130.61C131.41 84.575 132.085 84.715 132.635 84.995C133.195 85.265 133.61 85.635 133.88 86.105C134.16 86.575 134.3 87.1 134.3 87.68ZM130.61 89.375C131.26 89.375 131.745 89.23 132.065 88.94C132.385 88.64 132.545 88.22 132.545 87.68C132.545 86.54 131.9 85.97 130.61 85.97H128.72V89.375H130.61ZM143.506 90.665C143.506 90.975 143.486 91.255 143.446 91.505H137.131C137.181 92.165 137.426 92.695 137.866 93.095C138.306 93.495 138.846 93.695 139.486 93.695C140.406 93.695 141.056 93.31 141.436 92.54H143.281C143.031 93.3 142.576 93.925 141.916 94.415C141.266 94.895 140.456 95.135 139.486 95.135C138.696 95.135 137.986 94.96 137.356 94.61C136.736 94.25 136.246 93.75 135.886 93.11C135.536 92.46 135.361 91.71 135.361 90.86C135.361 90.01 135.531 89.265 135.871 88.625C136.221 87.975 136.706 87.475 137.326 87.125C137.956 86.775 138.676 86.6 139.486 86.6C140.266 86.6 140.961 86.77 141.571 87.11C142.181 87.45 142.656 87.93 142.996 88.55C143.336 89.16 143.506 89.865 143.506 90.665ZM141.721 90.125C141.711 89.495 141.486 88.99 141.046 88.61C140.606 88.23 140.061 88.04 139.411 88.04C138.821 88.04 138.316 88.23 137.896 88.61C137.476 88.98 137.226 89.485 137.146 90.125H141.721ZM149.359 86.6C150.009 86.6 150.589 86.735 151.099 87.005C151.619 87.275 152.024 87.675 152.314 88.205C152.604 88.735 152.749 89.375 152.749 90.125V95H151.054V90.38C151.054 89.64 150.869 89.075 150.499 88.685C150.129 88.285 149.624 88.085 148.984 88.085C148.344 88.085 147.834 88.285 147.454 88.685C147.084 89.075 146.899 89.64 146.899 90.38V95H145.189V86.735H146.899V87.68C147.179 87.34 147.534 87.075 147.964 86.885C148.404 86.695 148.869 86.6 149.359 86.6ZM158.26 86.6C158.9 86.6 159.465 86.73 159.955 86.99C160.455 87.24 160.845 87.555 161.125 87.935V86.735H162.85V95.135C162.85 95.895 162.69 96.57 162.37 97.16C162.05 97.76 161.585 98.23 160.975 98.57C160.375 98.91 159.655 99.08 158.815 99.08C157.695 99.08 156.765 98.815 156.025 98.285C155.285 97.765 154.865 97.055 154.765 96.155H156.46C156.59 96.585 156.865 96.93 157.285 97.19C157.715 97.46 158.225 97.595 158.815 97.595C159.505 97.595 160.06 97.385 160.48 96.965C160.91 96.545 161.125 95.935 161.125 95.135V93.755C160.835 94.145 160.44 94.475 159.94 94.745C159.45 95.005 158.89 95.135 158.26 95.135C157.54 95.135 156.88 94.955 156.28 94.595C155.69 94.225 155.22 93.715 154.87 93.065C154.53 92.405 154.36 91.66 154.36 90.83C154.36 90 154.53 89.265 154.87 88.625C155.22 87.985 155.69 87.49 156.28 87.14C156.88 86.78 157.54 86.6 158.26 86.6ZM161.125 90.86C161.125 90.29 161.005 89.795 160.765 89.375C160.535 88.955 160.23 88.635 159.85 88.415C159.47 88.195 159.06 88.085 158.62 88.085C158.18 88.085 157.77 88.195 157.39 88.415C157.01 88.625 156.7 88.94 156.46 89.36C156.23 89.77 156.115 90.26 156.115 90.83C156.115 91.4 156.23 91.9 156.46 92.33C156.7 92.76 157.01 93.09 157.39 93.32C157.78 93.54 158.19 93.65 158.62 93.65C159.06 93.65 159.47 93.54 159.85 93.32C160.23 93.1 160.535 92.78 160.765 92.36C161.005 91.93 161.125 91.43 161.125 90.86ZM164.526 90.83C164.526 90 164.696 89.265 165.036 88.625C165.386 87.985 165.856 87.49 166.446 87.14C167.046 86.78 167.706 86.6 168.426 86.6C169.076 86.6 169.641 86.73 170.121 86.99C170.611 87.24 171.001 87.555 171.291 87.935V86.735H173.016V95H171.291V93.77C171.001 94.16 170.606 94.485 170.106 94.745C169.606 95.005 169.036 95.135 168.396 95.135C167.686 95.135 167.036 94.955 166.446 94.595C165.856 94.225 165.386 93.715 165.036 93.065C164.696 92.405 164.526 91.66 164.526 90.83ZM171.291 90.86C171.291 90.29 171.171 89.795 170.931 89.375C170.701 88.955 170.396 88.635 170.016 88.415C169.636 88.195 169.226 88.085 168.786 88.085C168.346 88.085 167.936 88.195 167.556 88.415C167.176 88.625 166.866 88.94 166.626 89.36C166.396 89.77 166.281 90.26 166.281 90.83C166.281 91.4 166.396 91.9 166.626 92.33C166.866 92.76 167.176 93.09 167.556 93.32C167.946 93.54 168.356 93.65 168.786 93.65C169.226 93.65 169.636 93.54 170.016 93.32C170.396 93.1 170.701 92.78 170.931 92.36C171.171 91.93 171.291 91.43 171.291 90.86ZM174.692 90.83C174.692 90 174.862 89.265 175.202 88.625C175.552 87.985 176.022 87.49 176.612 87.14C177.212 86.78 177.877 86.6 178.607 86.6C179.147 86.6 179.677 86.72 180.197 86.96C180.727 87.19 181.147 87.5 181.457 87.89V83.9H183.182V95H181.457V93.755C181.177 94.155 180.787 94.485 180.287 94.745C179.797 95.005 179.232 95.135 178.592 95.135C177.872 95.135 177.212 94.955 176.612 94.595C176.022 94.225 175.552 93.715 175.202 93.065C174.862 92.405 174.692 91.66 174.692 90.83ZM181.457 90.86C181.457 90.29 181.337 89.795 181.097 89.375C180.867 88.955 180.562 88.635 180.182 88.415C179.802 88.195 179.392 88.085 178.952 88.085C178.512 88.085 178.102 88.195 177.722 88.415C177.342 88.625 177.032 88.94 176.792 89.36C176.562 89.77 176.447 90.26 176.447 90.83C176.447 91.4 176.562 91.9 176.792 92.33C177.032 92.76 177.342 93.09 177.722 93.32C178.112 93.54 178.522 93.65 178.952 93.65C179.392 93.65 179.802 93.54 180.182 93.32C180.562 93.1 180.867 92.78 181.097 92.36C181.337 91.93 181.457 91.43 181.457 90.86ZM192.913 86.735V95H191.203V94.025C190.933 94.365 190.578 94.635 190.138 94.835C189.708 95.025 189.248 95.12 188.758 95.12C188.108 95.12 187.523 94.985 187.003 94.715C186.493 94.445 186.088 94.045 185.788 93.515C185.498 92.985 185.353 92.345 185.353 91.595V86.735H187.048V91.34C187.048 92.08 187.233 92.65 187.603 93.05C187.973 93.44 188.478 93.635 189.118 93.635C189.758 93.635 190.263 93.44 190.633 93.05C191.013 92.65 191.203 92.08 191.203 91.34V86.735H192.913ZM194.599 90.83C194.599 90 194.769 89.265 195.109 88.625C195.459 87.985 195.929 87.49 196.519 87.14C197.119 86.78 197.779 86.6 198.499 86.6C199.149 86.6 199.714 86.73 200.194 86.99C200.684 87.24 201.074 87.555 201.364 87.935V86.735H203.089V95H201.364V93.77C201.074 94.16 200.679 94.485 200.179 94.745C199.679 95.005 199.109 95.135 198.469 95.135C197.759 95.135 197.109 94.955 196.519 94.595C195.929 94.225 195.459 93.715 195.109 93.065C194.769 92.405 194.599 91.66 194.599 90.83ZM201.364 90.86C201.364 90.29 201.244 89.795 201.004 89.375C200.774 88.955 200.469 88.635 200.089 88.415C199.709 88.195 199.299 88.085 198.859 88.085C198.419 88.085 198.009 88.195 197.629 88.415C197.249 88.625 196.939 88.94 196.699 89.36C196.469 89.77 196.354 90.26 196.354 90.83C196.354 91.4 196.469 91.9 196.699 92.33C196.939 92.76 197.249 93.09 197.629 93.32C198.019 93.54 198.429 93.65 198.859 93.65C199.299 93.65 199.709 93.54 200.089 93.32C200.469 93.1 200.774 92.78 201.004 92.36C201.244 91.93 201.364 91.43 201.364 90.86ZM209.505 86.6C210.155 86.6 210.735 86.735 211.245 87.005C211.765 87.275 212.17 87.675 212.46 88.205C212.75 88.735 212.895 89.375 212.895 90.125V95H211.2V90.38C211.2 89.64 211.015 89.075 210.645 88.685C210.275 88.285 209.77 88.085 209.13 88.085C208.49 88.085 207.98 88.285 207.6 88.685C207.23 89.075 207.045 89.64 207.045 90.38V95H205.335V86.735H207.045V87.68C207.325 87.34 207.68 87.075 208.11 86.885C208.55 86.695 209.015 86.6 209.505 86.6Z" fill="#757575"/>
<defs>
<clipPath id="clip0_8_15">
<rect width="35" height="35" fill="white" transform="translate(119 45)"/>
</clipPath>
</defs>
</svg>
