<svg  viewBox="0 0 272 124" fill="none" xmlns="http://www.w3.org/2000/svg">

<path d="M131.333 65.5H145.836L148.333 67.4621V52.75H149.75C150.126 52.75 150.486 52.8993 150.752 53.1649C151.017 53.4306 151.167 53.7909 151.167 54.1667V73.2917L144.855 68.3333H132.75C132.374 68.3333 132.014 68.1841 131.748 67.9184C131.483 67.6527 131.333 67.2924 131.333 66.9167V65.5ZM127.728 62.6667L121.417 67.625V45.6667C121.417 45.2909 121.566 44.9306 121.832 44.6649C122.097 44.3993 122.458 44.25 122.833 44.25H144.083C144.459 44.25 144.819 44.3993 145.085 44.6649C145.351 44.9306 145.5 45.2909 145.5 45.6667V62.6667H136.614H127.728Z" fill="white"/>
</svg>
